<svg width="7052" height="1565" viewBox="0 0 7052 1565" fill="none" xmlns="http://www.w3.org/2000/svg">
<path d="M1788.88 799.134C1788.88 733.642 1801.71 675.558 1827.38 624.88C1853.82 574.202 1889.6 535.219 1934.72 507.931C1979.83 480.643 2030 466.999 2085.22 466.999C2127.23 466.999 2167.28 476.355 2205.4 495.067C2243.51 512.999 2273.85 537.168 2296.4 567.575V260H2462.08V1125.42H2296.4V1029.52C2276.18 1061.49 2247.79 1087.22 2211.23 1106.71C2174.67 1126.2 2132.28 1135.95 2084.06 1135.95C2029.61 1135.95 1979.83 1121.91 1934.72 1093.84C1889.6 1065.78 1853.82 1026.4 1827.38 975.726C1801.71 924.269 1788.88 865.405 1788.88 799.134ZM2297.57 801.473C2297.57 761.71 2289.79 727.795 2274.23 699.727C2258.68 670.88 2237.68 649.049 2211.23 634.236C2184.78 618.643 2156.39 610.846 2126.06 610.846C2095.72 610.846 2067.72 618.253 2042.06 633.066C2016.39 647.88 1995.39 669.71 1979.05 698.558C1963.5 726.625 1955.72 760.151 1955.72 799.134C1955.72 838.117 1963.5 872.422 1979.05 902.049C1995.39 930.896 2016.39 953.116 2042.06 968.709C2068.5 984.303 2096.5 992.099 2126.06 992.099C2156.39 992.099 2184.78 984.692 2211.23 969.879C2237.68 954.286 2258.68 932.455 2274.23 904.388C2289.79 875.54 2297.57 841.235 2297.57 801.473Z" fill="white"/>
<path d="M3222.47 787.439C3222.47 810.829 3220.92 831.879 3217.81 850.591H2745.28C2749.17 897.371 2765.51 934.015 2794.28 960.523C2823.06 987.031 2858.45 1000.29 2900.46 1000.29C2961.13 1000.29 3004.3 974.167 3029.96 921.93H3206.14C3187.47 984.303 3151.69 1035.76 3098.8 1076.3C3045.91 1116.06 2980.96 1135.95 2903.96 1135.95C2841.73 1135.95 2785.73 1122.3 2735.95 1095.01C2686.95 1066.95 2648.44 1027.57 2620.44 976.896C2593.22 926.218 2579.61 867.744 2579.61 801.473C2579.61 734.422 2593.22 675.558 2620.44 624.88C2647.67 574.202 2685.78 535.219 2734.78 507.931C2783.78 480.643 2840.18 466.999 2903.96 466.999C2965.4 466.999 3020.24 480.253 3068.47 506.762C3117.47 533.27 3155.19 571.084 3181.64 620.202C3208.86 668.541 3222.47 724.287 3222.47 787.439ZM3053.3 740.659C3052.52 698.558 3037.35 665.032 3007.8 640.083C2978.24 614.355 2942.07 601.49 2899.29 601.49C2858.84 601.49 2824.62 613.965 2796.62 638.914C2769.39 663.083 2752.67 696.998 2746.45 740.659H3053.3Z" fill="white"/>
<path d="M3505.04 572.253C3526.04 541.067 3554.82 515.728 3591.38 496.236C3628.71 476.745 3671.1 466.999 3718.55 466.999C3773.78 466.999 3823.56 480.643 3867.89 507.931C3913.01 535.219 3948.4 574.202 3974.06 624.88C4000.51 674.778 4013.73 732.863 4013.73 799.134C4013.73 865.405 4000.51 924.269 3974.06 975.726C3948.4 1026.4 3913.01 1065.78 3867.89 1093.84C3823.56 1121.91 3773.78 1135.95 3718.55 1135.95C3670.33 1135.95 3627.94 1126.59 3591.38 1107.88C3555.6 1088.39 3526.82 1063.44 3505.04 1033.03V1125.42H3341.7V260H3505.04V572.253ZM3846.89 799.134C3846.89 760.151 3838.72 726.625 3822.39 698.558C3806.83 669.71 3785.83 647.88 3759.39 633.066C3733.72 618.253 3705.72 610.846 3675.38 610.846C3645.83 610.846 3617.82 618.643 3591.38 634.236C3565.71 649.049 3544.71 670.88 3528.37 699.727C3512.82 728.575 3505.04 762.49 3505.04 801.473C3505.04 840.456 3512.82 874.371 3528.37 903.218C3544.71 932.065 3565.71 954.286 3591.38 969.879C3617.82 984.692 3645.83 992.099 3675.38 992.099C3705.72 992.099 3733.72 984.303 3759.39 968.709C3785.83 953.116 3806.83 930.896 3822.39 902.049C3838.72 873.201 3846.89 838.896 3846.89 799.134Z" fill="white"/>
<path d="M4295.77 260V1125.42H4132.43V260H4295.77Z" fill="white"/>
<path d="M4415.15 799.134C4415.15 733.642 4427.98 675.558 4453.65 624.88C4480.1 574.202 4515.49 535.219 4559.82 507.931C4604.94 480.643 4655.11 466.999 4710.33 466.999C4758.56 466.999 4800.56 476.745 4836.34 496.236C4872.9 515.728 4902.07 540.287 4923.84 569.914V477.525H5088.35V1125.42H4923.84V1030.69C4902.84 1061.1 4873.67 1086.44 4836.34 1106.71C4799.78 1126.2 4757.39 1135.95 4709.17 1135.95C4654.72 1135.95 4604.94 1121.91 4559.82 1093.84C4515.49 1065.78 4480.1 1026.4 4453.65 975.726C4427.98 924.269 4415.15 865.405 4415.15 799.134ZM4923.84 801.473C4923.84 761.71 4916.07 727.795 4900.51 699.727C4884.95 670.88 4863.95 649.049 4837.51 634.236C4811.06 618.643 4782.67 610.846 4752.34 610.846C4722 610.846 4694 618.253 4668.33 633.066C4642.66 647.88 4621.66 669.71 4605.33 698.558C4589.77 726.625 4581.99 760.151 4581.99 799.134C4581.99 838.117 4589.77 872.422 4605.33 902.049C4621.66 930.896 4642.66 953.116 4668.33 968.709C4694.78 984.303 4722.78 992.099 4752.34 992.099C4782.67 992.099 4811.06 984.692 4837.51 969.879C4863.95 954.286 4884.95 932.455 4900.51 904.388C4916.07 875.54 4923.84 841.235 4923.84 801.473Z" fill="white"/>
<path d="M5397.23 990.93H5685.41V1125.42H5211.72V993.269L5494.06 612.016H5212.88V477.525H5681.91V609.677L5397.23 990.93Z" fill="white"/>
<path d="M6412.74 787.439C6412.74 810.829 6411.19 831.879 6408.08 850.591H5935.55C5939.44 897.371 5955.77 934.015 5984.55 960.523C6013.33 987.031 6048.72 1000.29 6090.73 1000.29C6151.4 1000.29 6194.56 974.167 6220.23 921.93H6396.41C6377.74 984.303 6341.96 1035.76 6289.07 1076.3C6236.18 1116.06 6171.23 1135.95 6094.23 1135.95C6032 1135.95 5976 1122.3 5926.22 1095.01C5877.22 1066.95 5838.71 1027.57 5810.71 976.896C5783.49 926.218 5769.88 867.744 5769.88 801.473C5769.88 734.422 5783.49 675.558 5810.71 624.88C5837.94 574.202 5876.05 535.219 5925.05 507.931C5974.05 480.643 6030.45 466.999 6094.23 466.999C6155.67 466.999 6210.51 480.253 6258.73 506.762C6307.74 533.27 6345.46 571.084 6371.91 620.202C6399.13 668.541 6412.74 724.287 6412.74 787.439ZM6243.57 740.659C6242.79 698.558 6227.62 665.032 6198.06 640.083C6168.51 614.355 6132.34 601.49 6089.56 601.49C6049.11 601.49 6014.89 613.965 5986.89 638.914C5959.66 663.083 5942.94 696.998 5936.72 740.659H6243.57Z" fill="white"/>
<path d="M6524.38 955.251H6697V1125.42H6524.38V955.251Z" fill="white"/>
<path d="M6524.38 955.251H6697V1125.42H6524.38V955.251Z" fill="url(#paint0_linear_737_245)"/>
<path d="M343 801.472C343 734.422 356.612 675.947 383.835 626.049C411.059 575.372 448.783 536.389 497.008 509.101C545.233 481.033 600.458 466.999 662.683 466.999C742.798 466.999 808.913 487.27 861.027 527.812C913.918 567.575 949.309 623.71 967.199 696.219L823.249 702C813.915 673.932 765.744 646.32 743.187 630.727C721.409 614.354 694.185 606.168 661.517 606.168C614.847 606.168 577.901 623.32 550.677 657.625C523.454 691.151 509.842 739.1 509.842 801.472C509.842 863.065 523.454 911.014 550.677 945.319C577.901 978.845 614.847 995.607 661.517 995.607C730.048 995.607 765.964 955.009 821.557 903.5L967.199 906.726C949.309 976.896 913.918 1032.64 861.027 1073.96C808.135 1115.28 742.021 1135.95 662.683 1135.95C600.458 1135.95 545.233 1122.3 497.008 1095.01C448.783 1066.95 411.059 1027.96 383.835 978.065C356.612 927.387 343 868.523 343 801.472Z" fill="url(#paint1_linear_737_245)"/>
<path d="M1373.88 1135.95C1311.65 1135.95 1255.65 1122.3 1205.87 1095.01C1156.09 1066.95 1116.81 1027.57 1088.03 976.896C1060.03 926.218 1046.03 867.743 1046.03 801.472C1046.03 735.201 1060.42 676.727 1089.19 626.049C1118.75 575.372 1158.81 536.389 1209.37 509.101C1259.93 481.033 1316.32 466.999 1378.54 466.999C1440.77 466.999 1497.16 481.033 1547.72 509.101C1598.28 536.389 1637.95 575.372 1666.72 626.049C1696.28 676.727 1711.06 735.201 1711.06 801.472C1711.06 867.743 1695.89 926.218 1665.56 976.896C1636 1027.57 1595.55 1066.95 1544.22 1095.01C1493.66 1122.3 1436.88 1135.95 1373.88 1135.95ZM1373.88 993.268C1403.43 993.268 1431.05 986.252 1456.71 972.218C1483.16 957.404 1504.16 935.574 1519.72 906.726C1535.27 877.879 1543.05 842.794 1543.05 801.472C1543.05 739.879 1526.72 692.71 1494.05 659.964C1462.16 626.439 1422.88 609.676 1376.21 609.676C1329.54 609.676 1290.26 626.439 1258.37 659.964C1227.26 692.71 1211.7 739.879 1211.7 801.472C1211.7 863.065 1226.87 910.625 1257.2 944.15C1288.32 976.895 1327.21 993.268 1373.88 993.268Z" fill="url(#paint2_linear_737_245)"/>
<path d="M890.038 553.768C894.392 556.677 950.987 609.406 999.963 684.681C932.703 755.378 901.274 788.421 888.942 801.394C888.942 801.394 888.947 801.406 888.95 801.411L888.942 801.394C872.245 767.929 824.073 690.128 764.877 646.498C705.67 602.86 824.011 566.132 890.038 553.768Z" fill="url(#paint3_linear_737_245)"/>
<path d="M1131.66 569.041C1057.65 650.862 814.505 929.269 730.048 982.507C733.676 994.871 628.429 1141.79 765.964 1122.15C903.5 1102.5 1175.92 730.864 1214.37 660.68C1214.37 660.68 1205.66 487.221 1131.66 569.041Z" fill="url(#paint4_linear_737_245)"/>
<defs>
<linearGradient id="paint0_linear_737_245" x1="6500.5" y1="1125" x2="6742" y2="938.5" gradientUnits="userSpaceOnUse">
<stop stop-color="#EFA143"/>
<stop offset="0.489655" stop-color="#C86A86"/>
<stop offset="1" stop-color="#82739D"/>
</linearGradient>
<linearGradient id="paint1_linear_737_245" x1="414.5" y1="778.5" x2="1797.5" y2="778.5" gradientUnits="userSpaceOnUse">
<stop stop-color="#F1A340"/>
<stop offset="0.482005" stop-color="#C76988"/>
<stop offset="1" stop-color="#6D76A3"/>
</linearGradient>
<linearGradient id="paint2_linear_737_245" x1="414.5" y1="778.5" x2="1797.5" y2="778.5" gradientUnits="userSpaceOnUse">
<stop stop-color="#F1A340"/>
<stop offset="0.482005" stop-color="#C76988"/>
<stop offset="1" stop-color="#6D76A3"/>
</linearGradient>
<linearGradient id="paint3_linear_737_245" x1="414.5" y1="778.5" x2="1797.5" y2="778.5" gradientUnits="userSpaceOnUse">
<stop stop-color="#F1A340"/>
<stop offset="0.482005" stop-color="#C76988"/>
<stop offset="1" stop-color="#6D76A3"/>
</linearGradient>
<linearGradient id="paint4_linear_737_245" x1="414.5" y1="778.5" x2="1797.5" y2="778.5" gradientUnits="userSpaceOnUse">
<stop stop-color="#F1A340"/>
<stop offset="0.482005" stop-color="#C76988"/>
<stop offset="1" stop-color="#6D76A3"/>
</linearGradient>
</defs>
</svg>
