<svg xmlns="http://www.w3.org/2000/svg" viewBox="0 0 3000 1700">
  <title>Artboard 1</title>
  <g>
    <path d="M1374.1,299.09S289.91-9.48,608.73,655.2s482.9,919.18,1058.08,639.51S2242,1014.11,2242,1014.11,1622.07,368.07,1374.1,299.09Z" style="fill: #22d2fc"/>
    <path d="M1279,397S1863.52-50.5,2308.2,468.76s-278.74,951.81-498.74,902.4S941.54,1358.11,1279,397Z" style="fill: #0cf49b"/>
    <rect x="747.64" y="380.19" width="1286.48" height="902.4" style="fill: #60605f"/>
    <rect x="784.93" y="424.01" width="1211.9" height="814.77" style="fill: #e6e7e8"/>
    <path d="M2391.89,725.15l8.13-44.71a11.55,11.55,0,0,1,1.55-4l22.1-35.56a24.57,24.57,0,0,1,38.76-3.93c12.94,13.8,24.57,34.33,15.92,59.4-10.6,30.74-23.6,51.22-31.47,61.86a11.54,11.54,0,0,1-15.88,2.55l-34.37-24.06A11.55,11.55,0,0,1,2391.89,725.15Z" style="fill: #ffa983"/>
    <path d="M1724.64,1480.37s197.75,38.56,252.72-129.64l-34.46-503-309.34,92.72Z" style="fill: #ededed"/>
    <path d="M1691.82,907.64s129.64,122.26,204.31-50.87L1668,873.18Z" style="fill: #4c4a48;opacity: 0.7000000000000001"/>
    <path d="M1919.34,1140.36c-.38,4.42-.59,8.87-1.16,13.27q-8.12,63-64.87,91.7c-6.25,3.16-9.66,1.17-10.42-5.76q-1.31-12-2.5-24.1c-.92-9.28-2.18-18.42-10.09-25.41,4.51-1.37,8.49-2.49,12.41-3.79,22.85-7.57,35.11-26,33.9-50-.53-10.46-1.95-20.44-8-29.35-5.68-8.32-5.19-8.45-6.23-18.43-.6-5.7-2.68-11.23-4-16.87-.86-3.76-3.64-4-6.17-2.83-6.84,3.25-13.81,6.44-20,10.67a16.36,16.36,0,0,1-12.26,3.13c-16-1.93-31.57.24-46.84,5.32-2,.66-4.56.27-6.65-.34-7.7-2.27-15.22-5.2-23-7.18-5.36-1.37-6.48-.18-7.49,5.19-1.45,7.79-1.18,15.39,1.81,22.9a6.91,6.91,0,0,1-.68,5.66c-13.87,19-4.59,57.37,12.39,69.39,10.28,7.27,21.85,10,34.17,10.48.9,0,1.79,0,2.69.05.27,0,.54.21.39.14-1.34,5-2.61,9.9-4,14.77a3.46,3.46,0,0,1-1.67,1.86c-10.64,5.24-21.38,6-30.55-4.15a62.16,62.16,0,0,0-13.78-11c-3.48-2.12-7.93-2.56-12.54.89,2,1.71,3.74,3.13,5.38,4.69,4.27,4.06,9.8,7.46,12.46,12.4,8.32,15.44,18.44,15.61,32.42,14.55,3-.22,5.87-1.08,9.45-1.77.78,7.53,1.83,14.88,2.19,22.26.19,4-3.66,5.86-8.77,4.65a109.84,109.84,0,0,1-39.42-17.69c-69-49.85-64.42-151.47,9.34-193.89,62.66-36,142.05-5.8,165.65,63.1,1.68,4.91,2.9,10,4.33,15Z" style="fill: #0f0f0f;opacity: 0.2"/>
    <polygon points="1853.79 1184.77 1816.69 1191.71 1776.33 1001.18 1832.13 991.33 1853.79 1184.77" style="fill: #4c4a48"/>
    <path d="M2441,787c-20.94,119.11-148.5,188-254.41,215.56-39.34,10.22-79.58,17.52-120.34,17.6-30.23.05-54-3.46-57,33.67-5.2,64.9,23.8,137.34,46,197,1.52,4.08,2.93,8.11,4.53,12C2198,1597,1956.56,1543.93,1916,1546c2.26-62.7-19.49-172.52-23-235.15-1.39-24.52-2.6-49.49-7.33-73.63-4.69-23.93-13.13-46.93-18.81-70.61-11.2-46.66,0-95.16,6.06-141.71,2.58-19.69,4.88-39.49,5.25-59.37a224.79,224.79,0,0,0-1-27.62c-.74-7.17-5.78-18.59-4.81-25.35,0,0,4.53-31.73,9.42-65.89,5.69-39.84,11.86-83,11.87-83,.25-1.73,16.34,3.33,35.17,9.92,25.19,8.82,55.25,20.37,58.73,22,79.12,37.6,200.23,57.67,259.47,30.42,50-23,127.11-64.49,146-109C2393,717,2454.13,712.33,2441,787Z" style="fill: #f21c1c"/>
    <path d="M1750.07,1081.59l45.95-45.95s14.77-7.38,31.18-4.92,36.92,37.74,30.36,68.1-23.8,53.33-48.41,47.59-43.49.82-43.49.82Z" style="fill: #ffa983"/>
    <path d="M1737.37,1076.13c-3.19,38.12-4.85,80.84-2.67,123.4q-4,3.75-8.43,7.6c-42.75,37-106.07,71.94-164,99.55-19.29,9.19-38,17.58-55.14,25-41.05,17.69-86.59-13.26-85.16-57.95,3.42-107,72.72-366.39,103.31-401.34,17.69-20.22,44.75-37.52,71.34-51.15a555.79,555.79,0,0,1,61.58-26.65c13.49-4.92,22.16-7.53,22.16-7.53l-4.55,25.48c2.9-6.42,4.55-9.89,4.55-9.89l76.31,137.85S1743.85,998.86,1737.37,1076.13Z" style="fill: #f21c1c"/>
    <path d="M1784.54,1531.24S1607,1833,1562.24,1306.68c58-27.61,121.29-62.5,164-99.55q4.43-3.84,8.43-7.6c1.54,30.25,5,60.43,11.27,88.83C1778.79,1437.7,1784.54,1531.24,1784.54,1531.24Z" style="fill: #f21c1c"/>
    <path d="M1858.58,892.76c-12.17,10.66-28.46,20.44-50.25,28-29.84,10.36-53.31,4.55-71.54-8.64-42.41-30.67-56.46-101.31-56.46-101.31l7.48-99.9,165.65-31.39,5.56,17.82.8,2.58,33,106S1901.84,854.88,1858.58,892.76Z" style="fill: #ffa983"/>
    <path d="M1892.84,805.89s9,49-34.26,86.87L1688,750l-.19-39.08,207-80.72c-8.39,23.89-19.95,47.09-35.78,67.15l.8,2.58Z" style="fill: #545454;opacity: 0.1"/>
    <path d="M1894.8,669.2c-8.39,23.89-19.95,47.09-35.78,67.15-21.69,27.52-51.43,49.13-92.09,58.49-33.06-9.55-58.91-25.39-79.09-44.89l0,0c-89.56-86.54-67.42-245-67.42-245,160-150.69,295.16-6.75,295.16-6.75S1923.51,587.67,1894.8,669.2Z" style="fill: #ffa983"/>
    <path d="M1624.55,621.8s-53-93.54-61.32-152.25,37.93-62.88,37.93-62.88,78.47-134.07,280.61-62.88l-16.63,10.91s67,18.19,86.26,30.14l-34.82,9.35s19.23,122.12-4.68,213.57c0,0,6.85-88.28-17.91-106.77s-53-18-35-31c6.79-4.91-203.79-10.33-206.91,45.79S1624.55,621.8,1624.55,621.8Z" style="fill: #141414"/>
    <path d="M1749.66,936.57c-14.83-8.4-51-29.56-86.17-55.14-25.82-18.78-51.08-40-66.91-60.23a555.79,555.79,0,0,1,61.58-26.65c3.73,7.45,9.08,18,15.48,30C1694.73,864.14,1727.1,920.13,1749.66,936.57Z" style="fill: #4c4a48;opacity: 0.1"/>
    <path d="M1684.44,755.84s-24.91-5.29-31.19,31.18c-12.31,71.39,103.39,153.44,103.39,153.44S1672.15,823.94,1684.44,755.84Z" style="fill: #f21c1c"/>
    <path d="M1737.38,1076.13l-.2.08-147.88,65.16,49.18-119.67c.17,4,1.88,32.88,26.26,50.87C1685.27,1087.72,1713.74,1089.12,1737.38,1076.13Z" style="fill: #545454;opacity: 0.1"/>
    <path d="M1734.7,1199.53c-2.18-42.56-.53-85.28,2.67-123.4h0l19.26-8.48S1820.71,1118.59,1734.7,1199.53Z" style="fill: #f21c1c"/>
    <circle cx="1800.13" cy="969.18" r="43.49" style="fill: #4c4a48"/>
    <path d="M2055.24,1250.78c-73.25-101.32-91-281.6-91-281.6l93.64,54.17q-2.09-.8-4.2-1.66C1974.87,989.55,2016.51,1146.76,2055.24,1250.78Z" style="fill: #545454;opacity: 0.1"/>
    <path d="M1756.6,940.45a28.41,28.41,0,0,1-6.94-3.88C1753.81,938.92,1756.29,940.27,1756.6,940.45Z" style="fill: #f21c1c"/>
    <path d="M1954.57,1037.33c.2,1.25.45,2.5.59,3.76q2.09,18-11.66,29.88c-1.51,1.3-2.6,1-3.28-.88q-1.19-3.25-2.35-6.51c-.9-2.51-1.87-5-4.55-6.35,1.16-.69,2.18-1.28,3.18-1.91,5.81-3.67,7.94-9.61,6-16.18-.87-2.86-1.95-5.53-4.25-7.58-2.15-1.92-2-2-3-4.68a41.66,41.66,0,0,0-2.26-4.4,1.12,1.12,0,0,0-1.9-.36,42.4,42.4,0,0,0-4.82,4.34,4.67,4.67,0,0,1-3.18,1.71,30.37,30.37,0,0,0-12.61,4.7,3.4,3.4,0,0,1-1.87.36c-2.29-.1-4.58-.39-6.87-.4-1.58,0-1.81.4-1.72,2a11.52,11.52,0,0,0,2.08,6.22,2,2,0,0,1,.2,1.62c-2.53,6.23,2.68,16.22,8.22,18.38a17.47,17.47,0,0,0,10.19.55l.75-.17c.08,0,.16,0,.12,0,0,1.47,0,2.92-.1,4.37a1,1,0,0,1-.33.63c-2.59,2.19-5.51,3.13-8.75,1a17.75,17.75,0,0,0-4.58-2.11,3,3,0,0,0-3.41,1.11c.66.34,1.25.61,1.81.93,1.46.83,3.23,1.39,4.31,2.58,3.37,3.71,6.18,3.06,10,1.8a25.53,25.53,0,0,0,2.5-1.14c.73,2,1.53,4,2.14,6,.33,1.1-.61,1.88-2.11,1.89a31.37,31.37,0,0,1-12.14-2.19c-22.56-9.06-28.29-37.54-10.77-54.38a32.71,32.71,0,0,1,50.25,6.07c.8,1.24,1.49,2.56,2.23,3.85Z" style="fill: #fff"/>
    <path d="M1875.61,907.64l6.14-61c5.69-39.84,11.86-83,11.87-83,.25-1.73,16.34,3.33,35.17,9.92C1933.48,808.86,1875.61,907.64,1875.61,907.64Z" style="fill: #4c4a48;opacity: 0.1"/>
    <path d="M1872,739s46.19,20.59,21.62,109l-21.29,64.57S1896.29,813.29,1872,739Z" style="fill: #f21c1c"/>
    <rect x="834.33" y="494.86" width="529.51" height="41.95" style="fill: #f2410a;opacity: 0.56"/>
    <rect x="966.71" y="569.44" width="529.51" height="41.95" style="fill: #075ce5;opacity: 0.56"/>
    <rect x="966.71" y="644.02" width="529.51" height="41.95" style="fill: #075ce5;opacity: 0.56"/>
    <rect x="834.33" y="718.59" width="311.37" height="41.95" style="fill: #0dd671;opacity: 0.56"/>
    <rect x="834.33" y="793.17" width="529.51" height="41.95" style="fill: #686868;opacity: 0.56"/>
    <rect x="1121.46" y="878.94" width="316.03" height="41.95" style="fill: #075ce5;opacity: 0.56"/>
  </g>
</svg>
