<svg xmlns="http://www.w3.org/2000/svg" viewBox="0 0 3000 1700">
  <title>Artboard 3</title>
  <g>
    <path d="M1386,1504S-92,939,536,598,1964,434,1964,434Z" style="fill: #22d2fc"/>
    <path d="M2431,1069.56c-86.24,92.38-199,170.24-299.28,233.38-149.44,94.09-313.47,165.15-484.61,208.83-99.19,25.32-199.24,40.35-301.9,33.48-116.41-7.78-229.41-44.14-326-110.05-120.08-81.9-212.57-204.29-197.44-356,13.7-137.34,99.84-259.73,191.43-357.87,124-132.87,276-250,449.16-309.85,188.68-65.19,389.5-83.29,587.66-92.84,110.39-5.32,220.64,1.09,327.7,31.48,166.25,47.19,264.78,168.41,234.24,345.23a785.67,785.67,0,0,1-97,263.85C2492.06,998.06,2463.39,1034.84,2431,1069.56Z" style="fill: #0cf49b"/>
    <polygon points="1281 614 1284.09 611.2 1420.32 780.62 1281 614" style="fill: #ed0f5f"/>
    <path d="M1848,99,1688,244.34l-178.91,162.5-225,204.36L906,141s10.72,3.64,33.17,8.41c22.81,4.86,57.72,10.88,105.81,15.46,63.68,6.06,150.47,9.58,262.83,4.47C1447,163,1625.53,143.43,1848,99Z" style="fill: #ed0f5f"/>
    <rect x="1301.69" y="-16.26" width="25.99" height="1337.41" transform="translate(-118.84 967.23) rotate(-38.78)" style="fill: #565656"/>
    <path d="M1688,244.34l-178.91,162.5A189,189,0,0,1,1483,413c-125,20-94-77-190-158-55.58-46.89-165.39-74.88-248-90.13,63.68,6.06,150.47,9.58,262.83,4.47C1457.23,279.38,1611.56,262.92,1688,244.34Z" style="fill: #282828;opacity: 0.1"/>
    <polygon points="2423 902 2414.52 1013.4 2284.02 1083.11 2280 958 2388 902 2406.84 930.69 2423 902" style="fill: #ffa983"/>
    <path d="M2457,889c-54.8,56.39-125.37,82.5-152.09,90.86-4.23,23.53-9.74,46.79-15.73,70-10.93,42.26-24.9,83.78-33,126.73-3.62,19.12-6.42,38.43-5.92,57.9.08,3,2.94,35,1.75,35.54a432.08,432.08,0,0,1-105.25,33.94,429.83,429.83,0,0,1-45.32,5.93C1986.93,1318.69,1905,1279,1905,1279s-216-452-183-520c28.29-58.31,72.77-101.17,180.07-135.53q8.67-2.79,17.91-5.49,19.23-5.64,41-11c71.91-17.62,161.74-6,239.46,16.23q9.54,2.73,18.83,5.66C2296.18,653.12,2358,686.73,2373,710c29.25,45.3,78.1,164.51,83.51,177.79Z" style="fill: #545454"/>
    <path d="M2219.29,628.89c-179.79,148.78-294.67,23.18-317.22-5.42q8.67-2.79,17.91-5.49,19.23-5.64,41-11c71.91-17.62,161.74-6,239.46,16.23Q2210,626,2219.29,628.89Z" style="fill: #2d2d2d"/>
    <rect x="1470.97" y="849.02" width="268.39" height="268.39" style="fill: none"/>
    <path d="M1720,1293s0,0,0,0S1720,1293,1720,1293Z" style="fill: #282828"/>
    <path d="M2200.46,623.23c-32.79,24.12-62.86,39.4-90.11,48.23C1985.89,711.84,1920,618,1920,618c9.42-2.76,33.34-16.82,51.13-25.48,6.42-3.13,12-5.56,15.89-6.5,8.11-2,16-3.56,23.74-4.73l.38-.06a222.84,222.84,0,0,1,78.73,2c17.23,3.44,35,8.77,54,15.88C2161.4,605.67,2180,613.73,2200.46,623.23Z" style="fill: #ffa983"/>
    <path d="M2260,777l6.76,60.82C2252.88,807.81,2260,777,2260,777Z" style="fill: #545454"/>
    <path d="M2457,889c-54.8,56.39-125.37,82.5-152.09,90.86-4.23,23.53-9.74,46.79-15.73,70-10.93,42.26-24.9,83.78-33,126.73-3.62,19.12-6.42,38.43-5.92,57.9.08,3,2.94,35,1.75,35.54a434.38,434.38,0,0,1-52.81,20.76c-26-45.27-57.36-110.46-53.19-155.76,7-76-140-138-140-138s204,2,226-42c21.77-43.54.45-110.59,0-112l41,51-6.24-56.18c7.15,15.44,19.85,30.68,42,41.39q2.26,1.11,4.68,2.14c29.63,12.77,74.75,17.83,143.12,6.44Z" style="fill: #282828;opacity: 0.2"/>
    <polygon points="2150 626 2062.43 627.88 1964 630 1971.11 592.5 1978.84 551.73 1986 514 2123 508 2124.75 515.66 2132.73 550.51 2143.85 599.11 2150 626" style="fill: #ffa983"/>
    <path d="M2200.46,623.23c-32.79,24.12-62.86,39.4-90.11,48.23l-47.92-43.58-50.25-45.71-1.06-1-31.86-29,0,0-.23-.2h.06l145.69-36.33,34.19-8.53a162.15,162.15,0,0,1-26.21,43.38l11.12,48.6C2161.4,605.67,2180,613.73,2200.46,623.23Z" style="fill: #282828;opacity: 0.2"/>
    <path d="M2176.54,428.31c-1.7,26.16-7.1,53.76-17.6,78.82a162.15,162.15,0,0,1-26.21,43.38,127.85,127.85,0,0,1-25,22.49,131.74,131.74,0,0,1-17.83,10.23c-15.15,7.16-32,11.34-48.68,9.45-.79-.08-1.58-.19-2.36-.3a70.53,70.53,0,0,1-26.63-10.21q-.72-.43-1.44-.9c-12-7.71-22.61-18.33-31.48-29l0,0-.17-.21-.22-.26q-2.16-2.64-4.18-5.25c-22.8-29.51-34.22-66.16-38.52-102.82-.46-3.88-.83-7.77-1.14-11.66-11-140,123-158,123-158s37,6,88,37c14.14,8.59,20.51,27.7,24.46,42.75C2176.81,377.9,2178.16,403.47,2176.54,428.31Z" style="fill: #ffa983"/>
    <path d="M1934,434l-14-111,14,6s-4-67,24-89v19s64-62,197-8l-11,7s24,11,42,32c0,0,11.54,65.08-11.73,160,0,0-10.27-51-24.27-85s-35-10-35-10-44-36-87-22-49,23-49,23l9-27S1944,357,1934,434Z" style="fill: #282828"/>
    <polygon points="2288 1207 2255.55 1457.76 2250.79 1462 2226.12 1483.96 2180 1525 2163.85 1234.53 2286.21 1151.35 2288 1207" style="fill: #8c8b8b"/>
    <polygon points="2164 1238 2180 1525 2171 1517 2149 1237 2433 1040 2450 1040 2164 1238" style="fill: #605f5f"/>
    <ellipse cx="2308.6" cy="1284.5" rx="38.6" ry="44.5" style="fill: #d3d3d3"/>
    <polygon points="2463 1271 2332.16 1388.97 2280 1436 2255.55 1457.76 2288 1207 2286.21 1151.35 2410.44 1066.89 2450 1040 2463 1271" style="fill: #8c8b8b"/>
    <path d="M2414.52,1013.4l-4.08,53.49-9.86,129.46a53.2,53.2,0,0,1-3.29,14.83L2332.16,1389,2312,1444l-8.08,35.69a25,25,0,0,1-21.56,19.33l-43.36,5-12.88-20,24.67-22,5.21-4-.45-.24a40.58,40.58,0,0,1,4.65-35.92L2288,1207l-1.79-55.65-2.19-68.24Z" style="fill: #ffa983"/>
    <circle cx="926" cy="689" r="38" style="fill: #fff"/>
    <circle cx="751" cy="649" r="38" style="fill: #fff"/>
    <circle cx="926" cy="926" r="38" style="fill: #fff"/>
    <circle cx="1114" cy="598" r="38" style="fill: #fff"/>
    <rect x="917" y="689" width="15" height="237" style="fill: #fff"/>
    <rect x="1012" y="531" width="15" height="237" transform="translate(818.53 1841.49) rotate(-112.93)" style="fill: #fff"/>
    <rect x="831" y="553" width="15" height="237" transform="translate(-52.87 1271.05) rotate(-72.61)" style="fill: #fff"/>
    <circle cx="2177.5" cy="860.5" r="34.5" style="fill: #2d2d2d"/>
    <path d="M1258.16,1095.37l33.91,319.81a175.27,175.27,0,0,0,73.45,107.31l46.32,31-10.45-466.92Z" style="fill: #ffa983"/>
    <path d="M1973.82,1080.06l-2.54,24-10.78,101.65-20.6,194.21a175.48,175.48,0,0,1-73.45,107.31l-46.31,31,9.56-426.67.9-40.25Z" style="fill: #ffa983"/>
    <path d="M2025.69,1126l-8.88,6c-79.4,53.95-121.89,86.42-139.82,72.71l2.19-92.93-9.25,384.56-1.4,10.64c-36.8,23.79-71.89,42.19-105.16,56.14-247,103.57-393.69-38.06-393.69-38.06l-.69-19.54-13.52-322.68c-74.5-14-167.07-70-167.28-70.11-3.89-2.36,3-40.62,4-46.08,9.2-49.43,27.33-97.12,51.3-141.24,13.81-25.42,29.19-52,48.52-74.45a182.71,182.71,0,0,1,34.6-31.67q4.18-2.89,8.58-5.5c37.79-22.33,76.39-47.44,120.39-55.29q5.36-1,10.73-1.8c18.91-3,37.62-5.06,55.41-6.44,76.09-5.86,152.71,3.94,225.83,25.28q3.67,1.07,7.35,2.19c51.92,15.73,70.92,26.14,117.71,52C2007.8,904.27,2025.69,1126,2025.69,1126Z" style="fill: #0796ed"/>
    <circle cx="1612.38" cy="1036.59" r="135.18" style="fill: #0471a8"/>
    <path d="M1747.56,775.53q-7,6.49-13.93,12.2a269.72,269.72,0,0,1-34.2,24.34,200.12,200.12,0,0,1-37.77,17.67c-117.48,40-195.34-73-195.34-73,13.16-2.1,28.29-11.31,42.28-17.2,6.11-2.58,12-4.51,17.43-4.93,15.13-1.17,29-2.38,42.3-3.16,8.51-.5,16.78-.82,25-.84,31.07,0,61.46,4.29,101,19.93a512.92,512.92,0,0,1,51.26,24Z" style="fill: #ffa983"/>
    <polygon points="1695.5 780.48 1655.27 778.14 1610.21 775.52 1507.44 769.55 1508.6 739.49 1511.24 671.25 1511.25 670.87 1511.38 667.59 1511.47 664.82 1512.15 647.36 1560.92 644.59 1690.07 637.26 1691.55 676.18 1694.36 750.49 1695.5 780.48" style="fill: #ffa983"/>
    <path d="M1745.62,774.5l-12,13.23a269.72,269.72,0,0,1-34.2,24.34,200.12,200.12,0,0,1-37.77,17.67l-51.45-54.22-41.88-44.12-57.09-60.15L1511,671l.25-.13,49.67-26.28,129.15-7.33,1.48,38.92,2.81,74.31A512.92,512.92,0,0,1,1745.62,774.5Z" style="fill: #282828;opacity: 0.2"/>
    <path d="M1450.59,445.92s10.31,274.59,153.07,285.36c115.9,8.75,152-269,152-269S1637.55,306,1450.59,445.92Z" style="fill: #ffa983"/>
    <path d="M1460.17,526.87S1440.75,494,1432,423s70-131.2,70-131.2l-6.56,28.43s75.44-56.85,185.87-56.85l-23,16.4s63.41,13.12,113.71,27.33L1748,320.18s29.58,100.68-4.35,206.69c0,0-13.15-83.14-23-98.45S1575.23,406.56,1546.8,435l3.28-25.15S1465.38,413.21,1460.17,526.87Z" style="fill: #282828"/>
    <polygon points="1355.46 1182.84 1375.14 1091 1375.14 1165.34 1399.2 1147.85 1369.68 1525.06 1355.46 1182.84" style="fill: #282828;opacity: 0.2"/>
    <path d="M2016.81,1132c-79.4,53.95-121.89,86.42-139.82,72.71l2.19-92.93-9.25,384.56-1.4,10.64c-36.8,23.79-71.89,42.19-105.16,56.14,18.12-56.65,53.52-209.54.31-427.19l59.74,98.3s7.65-62.32-10.93-147.6l49.2,97.31-62.32-223S1909.11,1158.26,2016.81,1132Z" style="fill: #282828;opacity: 0.2"/>
    <path d="M1325.94,843.9s-8.75,17.49,8.75,32.8c0,0-24.38-11.28-42.67-25.74a182.71,182.71,0,0,1,34.6-31.67c2.76,17.26,18.55,41.48,61.64,74.91C1388.26,894.19,1332.5,863.58,1325.94,843.9Z" style="fill: #282828;opacity: 0.2"/>
    <text transform="translate(1544.74 1086.83)" style="font-size: 146.73114013671875px;fill: #fff;font-family: Stop, Stop">://</text>
    <g style="opacity: 0.2">
      <path d="M1371.25,215.66a104.66,104.66,0,0,0-54.06-2,105.79,105.79,0,0,0-77.29,71.85,104.65,104.65,0,0,0-2,54.07A105.27,105.27,0,0,0,1384.08,412q3.17-2,3.36-4.43a5.35,5.35,0,0,0-1.49-4.22l-5.08-5.37q-4.81-5.07-8.34-8.87l-1.94,2.54a40.16,40.16,0,0,1-5.24,5.52,57.88,57.88,0,0,1-7.62,5.77,21.26,21.26,0,0,1-9.51,3.24,17.37,17.37,0,0,1-10.14-2.06l-3.15-1.38a34.2,34.2,0,0,0-7.91-2.18,16.52,16.52,0,0,0-7.9.24L1318,401a10,10,0,0,1-2.42,0,7.51,7.51,0,0,1-2.21-.57q-1-.42-.57-1.62a8.88,8.88,0,0,1,2.49-3.15l2.28-1.56a20,20,0,0,1,7.2-2.21,22.09,22.09,0,0,1,9.71.69,24.13,24.13,0,0,0,11.39,1.09,16.11,16.11,0,0,0,8.57-3.95,38.92,38.92,0,0,0,5.25-5.81,27.22,27.22,0,0,0,3.11-5.7q-5.34-7.56-4.69-14.89a93.72,93.72,0,0,1-12,7.75,55.86,55.86,0,0,1-13.06,4.85,36.85,36.85,0,0,1-14.31.79,44.07,44.07,0,0,1-15-5.63,68.34,68.34,0,0,1-16-13.13q-11.28-12.13-11.28-28-12.19-5.67-18.31-21.1,2.07-3.61,9.88-6.66a82.3,82.3,0,0,1,12-3.92q4.15-.87,6.78-1.25a98.85,98.85,0,0,1,38.5-35.79l1.57-5.95a73.66,73.66,0,0,1,5.12-13q3.45-6.94,7.1-8.65,15,7.14,19.81,19.71,15.84,1.16,27.12,13.29a69.11,69.11,0,0,1,12,17,42.36,42.36,0,0,1,4.47,15.46,38.26,38.26,0,0,1-1.92,14.22,56,56,0,0,1-5.79,12.67,93.62,93.62,0,0,1-8.6,11.36q9.4-.33,18.44,9.39l19.66,21.15a5.45,5.45,0,0,0,4,1.84q2.37,0,4.61-3a105.35,105.35,0,0,0-61.55-151Z" style="fill: #282828"/>
    </g>
    <text transform="translate(2149.09 874.99)" style="font-size: 41.278560638427734px;fill: #fff;font-family: Stop, Stop">&lt;/&gt;</text>
  </g>
</svg>
