<svg xmlns="http://www.w3.org/2000/svg"  viewBox="0 0 3000 1700">
  <title>hero_main</title>
  <g>
    <path d="M1560.69,664.09S272.77,171.51,447.88,893.43s1019.71,724.09,1019.71,724.09Z" style="fill: #0cf49b"/>
    <path d="M1294.63,863.92S2307.47,16.74,2501.79,658.44s-255.33,827-430.44,871S432.05,1429.78,1294.63,863.92Z" style="fill: #22d2fc"/>
    <g>
      <path d="M1569,1315.61c-97.64-40.2-178-136.41-178-136.41-122-18.67-124.92-99.08-124.92-99.08-90.46-10.05-127.79-103.38-127.79-103.38C912.83,946.6,971.7,844.65,971.7,844.65s-218.08,4.7-197.48-53.4C781.54,770.6,819,742,907.09,702.5,1212,565.69,1508.58,1182,1560.9,1297.31,1566.23,1309.07,1569,1315.61,1569,1315.61Z" style="fill: #1ab533"/>
      <path d="M1564.38,1300.88c-62.69-85-81.64-208.9-81.64-208.9-94.72-79.19-55.53-149.46-55.53-149.46-72.18-55.45-55.77-154.61-55.77-154.61-177.22-142.57-74-199.28-74-199.28s-248.89-143.49-103.27-160.1c26.35-3,65.62-1.87,121.63,5C1681.25,478.63,1564.38,1300.88,1564.38,1300.88Z" style="fill: #1ab533"/>
      <path d="M1568.4,1308.81c-3,0-6.09-.09-9.2-.23-1.74-.06-3.49-.14-5.27-.24-110.62-6.32-263.48-73.73-263.48-73.73-89.86,9.53-207.53-81.84-207.53-81.84-215.47,14.72-182-56.13-182-56.13s-117,49.42-230.11,14.66c-27.76-8.53-42.44-19.27-46.12-31.16-11.31-36.54,81.28-84.07,217.56-112.69,128-26.87,439,155.61,609.53,264.33C1522,1276.54,1568.4,1308.81,1568.4,1308.81Z" style="fill: #1ab533"/>
      <path d="M1569,1315.6c-.39-.19-5.64-2.77-15.08-7.27-105.45-50.36-733.08-341.18-929.24-228.2-11.31-36.54,81.28-84.07,217.56-112.69,128-26.87,439,155.61,609.53,264.33l107.42,76.8Z" style="fill: #333;opacity: 0.1"/>
      <path d="M1564.38,1300.88s-154.26-791.4-370.25-872.36c26.35-3,65.62-1.87,121.63,5C1681.25,478.63,1564.38,1300.88,1564.38,1300.88Z" style="fill: #333;opacity: 0.1"/>
      <path d="M1560.9,1297.31c-61.87-83.6-465.11-607.2-786.67-506.06C781.54,770.6,819,742,907.09,702.5,1212,565.69,1508.58,1182,1560.9,1297.31Z" style="fill: #333;opacity: 0.1"/>
    </g>
    <polygon points="1496.3 1090.01 1485 1087.75 1513.24 1299.02 1527.93 1293.37 1496.3 1090.01" style="fill: #6d6d6d"/>
    <path d="M1593.46,719.45c18.47,126.09,38.33,251.59,28.85,379.3-4.62,62.26-1.16,126.37-.6,189l45.19,5.65,50.84-573.92Z" style="fill: #ea9e83"/>
    <polygon points="1485 1087.75 1661.24 1035.78 1661.24 1041.42 1496.3 1090.01 1485 1087.75" style="fill: #605f60"/>
    <polygon points="1496.3 1090.01 1527.93 1326.13 1827.32 1222.19 1806.98 998.5 1496.3 1090.01" style="fill: #4c4b4c"/>
    <path d="M1655.59,1160.05v133.31s341.19,42.93,343.45,42.93-14.69-143.48-14.69-143.48Z" style="fill: #365689"/>
    <path d="M2006.95,1226.2c-155.91,42.93-282.44,14.69-282.44,14.69l-73.43-16.95v-3c.1-38.9,1.07-438.28,0-452.25-1.13-14.69-62.14-41.8-62.14-41.8l7.12-126.31a139.4,139.4,0,0,1,81.66-106.8c18.28-8,39-16.52,60.65-24.29l5.47-1.94h0q6.17-2.17,12.41-4.23,5-1.66,10.07-3.23h0c12.85-4,25.83-7.64,38.68-10.64,32.75-7.66,64.66-11.3,91.23-7.25a348.22,348.22,0,0,1,41.5,9.07,448,448,0,0,1,43.86,15c2.41,1,4.8,1.93,7.16,2.91,6.76,2.8,13.32,5.69,19.64,8.63a607.16,607.16,0,0,1,63.88,34.48c14.91,9.24,61.91,39.44,62.35,57l-30.5,275.15S2162.86,1183.27,2006.95,1226.2Z" style="fill: #ef0653"/>
    <path d="M1937.73,451.22h0l-40.37,18.54s-33.51.27-66.72-.69c-35.24-1-70.15-3.45-64.33-9h0c6.07-5.85,5.6-22.87,3.88-37.34,0-.3-.07-.6-.11-.89-1.48-12-3.77-22.09-3.77-22.09l30.41-12.65,97.08-40.39,13.73-5.71,4.36,15.92Z" style="fill: #ea9e83"/>
    <path d="M941.95,1310.72s62.5,5.7,137.34,10.83l-.28,0c-75.19-5.15-138.14-10.89-138.14-10.89l8.36-92.61,1.08,0Z" style="fill: #28c1e5"/>
    <path d="M1425.26,1280.1l-36.6,4.39-21.65,2.6-.4-109.4s31.4-24.54,35.73-37.1C1416.26,1213.45,1425.26,1280.1,1425.26,1280.1Z" style="fill: #ea9e83"/>
    <path d="M1366.6,1177.69l.4,109.4-287.72,34.46c-74.84-5.13-137.34-10.83-137.34-10.83l8.36-92.66-1.08,0V1218c-10.94.37-21.18.45-30.77.33q-4.3-.07-8.41-.18c-55.41-1.6-76.42-8.95-76.42-8.95-.08-1.43.18-4,.11-5.41-2.31-50.59,2.18-94,16.91-142.48,11.82-38.91,18.28-66.64,51.55-88.78s75.36-55,115.45-61.84c64.4-11,126-16.95,132.3-17.55,10.74,1.35,175.47,23,209.71,90.7,13.14,25.95,25.55,73.54,36,123.16,2.09,10,4.12,20.1,6.05,30.11,0,.05,0,.1,0,.14.22,1.11.42,2.2.64,3.3C1398,1153.15,1366.6,1177.69,1366.6,1177.69Z" style="fill: #28c1e5"/>
    <path d="M918.46,1218.36c9.58.13,19.83,0,30.77-.33v.05C938.28,1218.44,928,1218.51,918.46,1218.36Z" style="fill: #28c1e5"/>
    <path d="M1286.84,1328.42c-42.4,4.83-134.83,2-213.25-1.79l-.76,0,271.81-38.07.1,4.44a11.49,11.49,0,0,1-.14,1.92C1343.56,1302.38,1356.44,1320.49,1286.84,1328.42Z" style="fill: #28c1e5"/>
    <path d="M1402.33,1140.58c-.22-1.1-.42-2.19-.64-3.3,0,0,0-.09,0-.14-11.5-59.64-26.24-122.09-42-153.27-34.23-67.67-199-89.34-209.71-90.7l.53,0s25.45,3,58.9,10.66h0c54.23,12.36,129.47,36.83,151.36,80.09,15.78,31.18,30.52,93.63,42,153.27,0,.05,0,.1,0,.14A7,7,0,0,1,1402.33,1140.58Z" style="fill: #28c1e5"/>
    <path d="M2140.2,869.59,2034,888.71a167.5,167.5,0,0,0-42.17,17.83c-12.45,7.59-24.56,17.85-31.36,31.22-13.1,25.75-27.3,51-31.5,79.46-.32,2.12-.58,4.26-.78,6.41-3.36,36.5-1.59,54,5.58,90.2,6.37,32.15,18.18,62.86,20.24,95.76.05.88.1,1.76.13,2.66,2.23,52.16-22.74,143.27-22.74,143.27,41.32,56.81,148.52,73.6,148.52,73.6s233.09-37.44,209.84-99.43c-6.09-16.25-10.28-40.62-13.14-67.73-6.65-63-6.13-140.85-5.74-166.09.08-5.34.15-8.32.15-8.32l0,8.33,0,4a23,23,0,0,1,.69-4c8.22-31.82,82-73.62,82-73.62s-17.44-74.26-38.75-94.27c-8.25-7.76-29.1-19.58-51.55-31.16-12.06-6.21-24.58-12.37-35.85-17.78h0Z" style="fill: #c12582"/>
    <path d="M2270.95,1100v3A18.86,18.86,0,0,1,2270.95,1100Z" style="fill: #c12582"/>
    <path d="M2276.59,1262c-119.42-75.7-302-104.52-309.18-105.65,7.64,1,205.48,26,245.68-6.18,41-32.79,45.08-103.48,45.08-103.48l12.3,49.18.39,0C2270.46,1121.11,2269.94,1199,2276.59,1262Z" style="fill: #333;opacity: 0.1"/>
    <path d="M2227.5,879.14h0c-27.58-6.36-58-9-87.27-9.54L2034,888.71a167.5,167.5,0,0,0-42.17,17.83l-54.31,129.86c1.23-.76,80-49.36,88.11-72.74,8.2-23.57,141.39-37.91,176.23-7.17,28.36,25,90.76-27.34,61.54-59.57Z" style="fill: #333;opacity: 0.1"/>
    <path d="M2150.26,904.83a207.36,207.36,0,0,1-20,11c-69.69,33-96.82-11-96.82-11l3.13-87.74.16-4.51.58-16.23,98.14-76.84a325.05,325.05,0,0,1,27.93,46.73C2184.63,809.77,2202.36,872.62,2150.26,904.83Z" style="fill: #ffa983"/>
    <path d="M2150.26,904.83a207.36,207.36,0,0,1-20,11l-95-59.68-1.79-42.34,3.29-1.21,126.65-46.33C2184.63,809.77,2202.36,872.62,2150.26,904.83Z" style="fill: #a37361;opacity: 0.5"/>
    <path d="M2144.16,804.88c-18.17,27.59-45.07,64-84.85,63-16.59-.44-30.54-20.35-42.26-27.29-66.74-39.55-61.37-165.62-60.9-174.71,5,2.3,21.94,9.22,49.58,12.85,32.82,4.31,80.81,4,142.06-14.27C2147.8,664.42,2137.25,734.73,2144.16,804.88Z" style="fill: #ffa983"/>
    <path d="M2241.89,934.45c-37.17,6.91-61.78-21.67-61.78-21.67-21.79-25.79-31.89-66.66-36-107.91-6.91-70.14.85-117.05.85-117.05-61.25,18.24-104.1,20.42-136.93,16.11-27.64-3.63-46.15-5.74-51.19-8-.47,9.09,2.76,101.3,67.23,150.11-11.94,103.75-87.06,190.64-87.06,190.64s12.58-104-2.56-151.13-10.15-244.23,31-304.33S2107.95,559,2107.95,559c63.11-32.69,105.2,93,105.2,93Z" style="fill: #333"/>
    <path d="M962,1173.93l11-63.62s-7.61,56.11,27.82,69.8,149.17,7.31,207.23-28.32,162.69-74.6,106.58,80.09c-20.42,56.3-56.16,85.08-16.71,96.32s-311.15,12.9-311.15,12.9Z" style="fill: #333;opacity: 0.1"/>
    <path d="M683.5,1472.39c43.26,29.54,97.28,38,147.69,50.47,223.24,55.4,455,90.56,685.11,95.61,129.3,2.84,259-5.59,386.44-28.08,121.6-21.46,256.57-50.94,365.32-111.4,37-20.6,94.4-61.11,60.88-108.9a77.15,77.15,0,0,0-26.69-23.1s-196.16-134.46-1245.1-40.52c-97.68,8.75-197.59,18.87-292.27,45.73-32.91,9.34-85.27,22.44-104.16,55.07C645.26,1434,658.76,1455.5,683.5,1472.39Z" style="fill: #dbdbdb"/>
    <polygon points="1977.16 1477.77 1979.92 1484.21 2113.76 1397.95 1977.16 1477.77" style="fill: #a5a5a5"/>
    <polygon points="1813.23 1348.84 2140.16 1381.99 1977.16 1477.77 1616.15 1428.96 1813.23 1348.84" style="fill: #bcbcbc"/>
    <path d="M2353.82,1021.91s20.26,213.66,0,251.41-163.93,100.38-180.5,115.12c0,0-18.42,10.13-23,20.26s-17.5,16.58-33.15,15.66-30.39-20.26-23-31.31,12-41.44,35.92-44.2,141.82-94.86,146.43-119.72-5.61-133.49-5.61-133.49S2295.8,1029.27,2353.82,1021.91Z" style="fill: #ffa983"/>
    <path d="M1954.11,1212.25c-4.91,10.92-9.63,22-14.62,32.85-9,19.71-27.2,42.23-44,54.63-11.41,8.4-28,7.51-39.6,15.64s-26.64,15.39-36.15,25.77a97.59,97.59,0,0,0-6.06,7.92c-22.43,30.13-68.56,44.15-100.72,20.9-5.67-4.1,12.28-17.69,15.47-20.53,5.57-5,11.54-11.4,18.18-15,28.78-15.41,50.49-41,75.68-61.74,9.1-7.5,19.07-13.92,28.17-21.37,7.81-6.39,11.73-15.47,16-24.5,10.92-23.26,18.84-48,26.4-72.52,13.47-43.67,25-88,35.41-132.5q.53-2.27,1.05-4.54l-.34-.08c-.32,2.12-.58,4.26-.78,6.42-3.35,36.5-1.58,54,5.59,90.2,6.37,32.15,18.18,62.85,20.23,95.76C1954,1210.47,1954.07,1211.35,1954.11,1212.25Z" style="fill: #ffa983"/>
    <polygon points="1977.16 1477.77 1884.14 1258.59 1527.74 1229.12 1616.15 1428.96 1977.16 1477.77" style="fill: #efefef"/>
    <polygon points="1884.14 1258.59 1983.83 1473.85 1977.16 1477.77 1884.14 1258.59" style="fill: #dbdbdb"/>
    <polygon points="1979.92 1484.21 1616.15 1429.88 1616.15 1428.96 1977.16 1477.77 1979.92 1484.21" style="fill: #bcbcbc"/>
    <ellipse cx="1739.56" cy="1358.97" rx="20.26" ry="23.02" transform="translate(-446.43 1051.85) rotate(-30)" style="fill: #fff"/>
    <path d="M845.49,1211.64s46,189.24,89.3,186.86c9.2-.51,18.56-5.16,26.81-8.86,14.52-6.51,28.59-14,42.53-21.69,36.39-20,71.87-41.73,107.1-63.73,38.17-23.83,75.9-48.32,113.52-73l1.49-1c3.59-2.36,7.19-3.7,11-5.66,11.88-6.1,25.16-8.31,37.23-14.09,11.53-5.53,22.66-12.58,31.33-22.09,11.42-12.54,16.92-29.52,19.29-46,1.42-9.88,5.19-25.42,0-34.66-6.16-10.91-21-4.19-29.28,0-17,8.57-34.24,16.88-50.76,26.34-5.6,3.2-11.65,6-16.35,10.54-5.57,5.34-5.18,10.38-12.24,15-8.75,5.69-19,10.36-28.64,14.16-10.71,4.23-21.26,9.09-31.84,13.66q-34.59,14.94-68.46,31.48c-30.19,14.74-60.12,29-89.78,44.77q-4.75,2.53-9.48,5.08L962,1173.93S885.46,1214.6,845.49,1211.64Z" style="fill: #ea9e83"/>
    <path d="M1099.93,939.32a764.22,764.22,0,0,1-82.28-28.6q6.51-1.12,13-2.16c63-10.23,119.86-15.43,119.86-15.43s3.17.38,8.74,1.2c7.31,1.08,18.78,2.93,32.66,5.71,5.49,1.11,11.36,2.35,17.5,3.75h0C1230.1,964.22,1160.9,956.29,1099.93,939.32Z" style="fill: #ea9e83"/>
    <path d="M1198.74,914.65s-32.67,1.78-69.53,2.44c-40.83.75-86.8.13-99.19-5.81l.61-2.73,20.79-93.14,101.67,2,38.81,82.6Z" style="fill: #ea9e83"/>
    <path d="M1180,878.57l-20.76,15.76-30,22.76-29.28,22.22a764.22,764.22,0,0,1-82.28-28.6q6.51-1.12,13-2.16l20.79-93.14,97,1.94Z" style="fill: #a37361;opacity: 0.30000000000000004"/>
    <path d="M1250.06,672.24s10.15,171.64-50.42,197.34-138.5-14.78-145.72-28-37.46-118.41-37.46-118.41l20-118.89S1232.05,597.37,1250.06,672.24Z" style="fill: #ea9e83"/>
    <path d="M1036.66,795.44S994,762.33,1001.15,677s11-117.72,78.28-127.19,158.15,45.36,187.5,38.37a193.5,193.5,0,0,0,50.16-19.56s-5.21,98.36-72.72,119.73-149.8-30-149.8-30l-4.35,55.09-11.83-3.48s-25.29-88.15-39.87-8.37S1036.66,795.44,1036.66,795.44Z" style="fill: #333"/>
    <path d="M1402.33,1140.58c-4.33,12.56-35.73,37.1-35.73,37.1l-6.17-124.55s11.67,41.38,35.19,53.89c2.09,10,4.12,20.1,6.05,30.11,0,.05,0,.1,0,.14C1401.91,1138.39,1402.12,1139.49,1402.33,1140.58Z" style="fill: #333;opacity: 0.1"/>
    <path d="M2271.63,1096a23,23,0,0,0-.69,4l0-4Z" style="fill: #333"/>
    <path d="M1694.42,945.4c3,164.95-42.22,276.79-42.22,276.79h0c.1-38.9,1.07-441.32,0-455.29l-5.65-108.46s11.3,76.82,35,97.16S1869.12,698,1869.12,698,1691.45,780.45,1694.42,945.4Z" style="fill: #333;opacity: 0.05"/>
    <path d="M1981.59,466.19c-4.7,4.25-41.3,36.62-85.6,53a150.28,150.28,0,0,1-35.78,8.8c-94.69,10.34-117.07-41.45-121.84-58.56l5.47-1.94h0q6.17-2.17,12.41-4.23,5-1.66,10.07-3.23h0c12.85-4,25.83-7.64,38.68-10.64,32.75-7.66,64.66-11.3,91.23-7.25a348.22,348.22,0,0,1,41.5,9.07A448,448,0,0,1,1981.59,466.19Z" style="fill: #ea9e83"/>
    <path d="M1981.59,466.19c-4.7,4.25-41.3,36.62-85.6,53l-65.35-50.13L1805,449.4l-34.81-26.7-.5-.38.38-.51,26.64-34.74,50.93-66.43,46.15,26,18.09,10.21,25.84,94.32A448,448,0,0,1,1981.59,466.19Z" style="fill: #a37361;opacity: 0.5"/>
    <path d="M1705.3,266.41s37.84,195.19,123.14,181.89c87-13.56,101.68-124.27,101.68-124.27l-4.52-109.59-81.34-49.71-91.51,15.82Z" style="fill: #ea9e83"/>
    <path d="M1678.19,261.89s28.24,44.06,157-28.24c22.6-15.82,78-21.47,84.73,9s9.38,84.67,9.38,84.67,47.11-85.8,12.09-171.67c-14.49-35.54-146.87-49.71-216.91,0S1662.37,251.73,1678.19,261.89Z" style="fill: #333"/>
  </g>
</svg>
