<svg xmlns="http://www.w3.org/2000/svg" viewBox="0 0 2118.06 1495.49">
  <title>girl_lap</title>
  <path d="M4580.69,2384.09s-1287.93-492.58-1112.81,229.34,1019.71,724.09,1019.71,724.09Z" transform="translate(-3451.51 -1843.51)" style="fill: #0cf49b"/>
  <path d="M4314.63,2583.92s1012.84-847.18,1207.15-205.48-255.33,827-430.44,871S3452.05,3149.78,4314.63,2583.92Z" transform="translate(-3451.51 -1843.51)" style="fill: #22d2fc"/>
  <g>
    <path d="M4589,3035.61c-97.64-40.2-178-136.41-178-136.41-122-18.67-124.92-99.08-124.92-99.08-90.46-10.05-127.79-103.38-127.79-103.38-225.43-30.15-166.56-132.1-166.56-132.1s-218.08,4.7-197.48-53.4c7.31-20.65,44.77-49.22,132.86-88.75C4232,2285.69,4528.58,2902,4580.9,3017.31,4586.23,3029.07,4589,3035.61,4589,3035.61Z" transform="translate(-3451.51 -1843.51)" style="fill: #1ab533"/>
    <path d="M4584.38,3020.88c-62.69-85-81.64-208.9-81.64-208.9-94.72-79.19-55.53-149.46-55.53-149.46-72.18-55.45-55.77-154.61-55.77-154.61-177.22-142.57-74-199.28-74-199.28s-248.89-143.49-103.27-160.1c26.35-3,65.62-1.87,121.63,5C4701.25,2198.63,4584.38,3020.88,4584.38,3020.88Z" transform="translate(-3451.51 -1843.51)" style="fill: #1ab533"/>
    <path d="M4588.4,3028.81c-3,0-6.09-.09-9.2-.23-1.74-.06-3.49-.14-5.27-.24-110.62-6.32-263.48-73.73-263.48-73.73-89.86,9.53-207.53-81.84-207.53-81.84-215.47,14.72-182-56.13-182-56.13s-117,49.42-230.11,14.66c-27.76-8.53-42.44-19.27-46.12-31.16-11.31-36.54,81.28-84.07,217.56-112.69,128-26.87,439,155.61,609.53,264.33C4542,2996.54,4588.4,3028.81,4588.4,3028.81Z" transform="translate(-3451.51 -1843.51)" style="fill: #1ab533"/>
    <path d="M4589,3035.6c-.39-.19-5.64-2.77-15.08-7.27-105.45-50.36-733.08-341.18-929.24-228.2-11.31-36.54,81.28-84.07,217.56-112.69,128-26.87,439,155.61,609.53,264.33l107.42,76.8Z" transform="translate(-3451.51 -1843.51)" style="fill: #333;opacity: 0.1"/>
    <path d="M4584.38,3020.88s-154.26-791.4-370.25-872.36c26.35-3,65.62-1.87,121.63,5C4701.25,2198.63,4584.38,3020.88,4584.38,3020.88Z" transform="translate(-3451.51 -1843.51)" style="fill: #333;opacity: 0.1"/>
    <path d="M4580.9,3017.31c-61.87-83.6-465.11-607.2-786.67-506.06,7.31-20.65,44.77-49.22,132.86-88.75C4232,2285.69,4528.58,2902,4580.9,3017.31Z" transform="translate(-3451.51 -1843.51)" style="fill: #333;opacity: 0.1"/>
  </g>
  <polygon points="1064.78 966.5 1053.49 964.24 1081.73 1175.5 1096.42 1169.85 1064.78 966.5" style="fill: #6d6d6d"/>
  <path d="M4613.46,2439.45c18.47,126.09,38.33,251.59,28.85,379.3-4.62,62.26-1.16,126.37-.6,189l45.19,5.65,50.84-573.92Z" transform="translate(-3451.51 -1843.51)" style="fill: #ea9e83"/>
  <polygon points="1053.49 964.24 1229.73 912.27 1229.73 917.91 1064.78 966.5 1053.49 964.24" style="fill: #605f60"/>
  <polygon points="1064.78 966.5 1096.42 1202.62 1395.8 1098.68 1375.47 874.99 1064.78 966.5" style="fill: #4c4b4c"/>
  <path d="M4675.59,2880.05v133.31s341.19,42.93,343.45,42.93-14.69-143.48-14.69-143.48Z" transform="translate(-3451.51 -1843.51)" style="fill: #365689"/>
  <path d="M5026.95,2946.2c-155.91,42.93-282.44,14.69-282.44,14.69l-73.43-16.95v-3c.1-38.9,1.07-438.28,0-452.25-1.13-14.69-62.14-41.8-62.14-41.8l7.12-126.31a139.4,139.4,0,0,1,81.66-106.8c18.28-8,39-16.52,60.65-24.29l5.47-1.94h0q6.17-2.17,12.41-4.23,5-1.66,10.07-3.23h0c12.85-4,25.83-7.64,38.68-10.64,32.75-7.66,64.66-11.3,91.23-7.25a348.22,348.22,0,0,1,41.5,9.07,448,448,0,0,1,43.86,15c2.41,1,4.8,1.93,7.16,2.91,6.76,2.8,13.32,5.69,19.64,8.63a607.16,607.16,0,0,1,63.88,34.48c14.91,9.24,61.91,39.44,62.35,57l-30.5,275.15S5182.86,2903.27,5026.95,2946.2Z" transform="translate(-3451.51 -1843.51)" style="fill: #ef0653"/>
  <path d="M3930,2938.18" transform="translate(-3451.51 -1843.51)" style="fill: #28c1e5"/>
  <path d="M4957.73,2171.22h0l-40.37,18.54s-33.51.27-66.72-.69c-35.24-1-70.15-3.45-64.33-9h0c6.07-5.85,5.6-22.87,3.88-37.34,0-.3-.07-.6-.11-.89-1.48-12-3.77-22.09-3.77-22.09l30.41-12.65,97.08-40.39,13.73-5.71,4.36,15.92Z" transform="translate(-3451.51 -1843.51)" style="fill: #ea9e83"/>
  <path d="M3961.95,3030.72s62.5,5.7,137.34,10.83l-.28,0c-75.19-5.15-138.14-10.89-138.14-10.89l8.36-92.61,1.08,0Z" transform="translate(-3451.51 -1843.51)" style="fill: #28c1e5"/>
  <path d="M4445.26,3000.1l-36.6,4.39-21.65,2.6-.4-109.4s31.4-24.54,35.73-37.1C4436.26,2933.45,4445.26,3000.1,4445.26,3000.1Z" transform="translate(-3451.51 -1843.51)" style="fill: #ea9e83"/>
  <path d="M4386.6,2897.69l.4,109.4-287.72,34.46c-74.84-5.13-137.34-10.83-137.34-10.83l8.36-92.66-1.08,0V2938c-10.94.37-21.18.45-30.77.33q-4.3-.07-8.41-.18c-55.41-1.6-76.42-8.95-76.42-8.95-.08-1.43.18-4,.11-5.41-2.31-50.59,2.18-94,16.91-142.48,11.82-38.91,18.28-66.64,51.55-88.78s75.36-55,115.45-61.84c64.4-11,126-16.95,132.3-17.55,10.74,1.35,175.47,23,209.71,90.7,13.14,25.95,25.55,73.54,36,123.16,2.09,10,4.12,20.1,6.05,30.11,0,.05,0,.1,0,.14.22,1.11.42,2.2.64,3.3C4418,2873.15,4386.6,2897.69,4386.6,2897.69Z" transform="translate(-3451.51 -1843.51)" style="fill: #28c1e5"/>
  <path d="M3938.46,2938.36c9.58.13,19.83,0,30.77-.33v.05C3958.28,2938.44,3948,2938.51,3938.46,2938.36Z" transform="translate(-3451.51 -1843.51)" style="fill: #28c1e5"/>
  <path d="M4306.84,3048.42c-42.4,4.83-134.83,2-213.25-1.79l-.76,0,271.81-38.07.1,4.44a11.49,11.49,0,0,1-.14,1.92C4363.56,3022.38,4376.44,3040.49,4306.84,3048.42Z" transform="translate(-3451.51 -1843.51)" style="fill: #28c1e5"/>
  <path d="M4422.33,2860.58c-.22-1.1-.42-2.19-.64-3.3,0,0,0-.09,0-.14-11.5-59.64-26.24-122.09-42-153.27-34.23-67.67-199-89.34-209.71-90.7l.53,0s25.45,3,58.9,10.66h0c54.23,12.36,129.47,36.83,151.36,80.09,15.78,31.18,30.52,93.63,42,153.27,0,.05,0,.1,0,.14A7,7,0,0,1,4422.33,2860.58Z" transform="translate(-3451.51 -1843.51)" style="fill: #28c1e5"/>
  <path d="M5160.2,2589.59,5054,2608.71a167.5,167.5,0,0,0-42.17,17.83c-12.45,7.59-24.56,17.85-31.36,31.22-13.1,25.75-27.3,51-31.5,79.46-.32,2.12-.58,4.26-.78,6.41-3.36,36.5-1.59,54,5.58,90.2,6.37,32.15,18.18,62.86,20.24,95.76.05.88.1,1.76.13,2.66,2.23,52.16-22.74,143.27-22.74,143.27,41.32,56.81,148.52,73.6,148.52,73.6s233.09-37.44,209.84-99.43c-6.09-16.25-10.28-40.62-13.14-67.73-6.65-63-6.13-140.85-5.74-166.09.08-5.34.15-8.32.15-8.32l0,8.33,0,4a23,23,0,0,1,.69-4c8.22-31.82,82-73.62,82-73.62s-17.44-74.26-38.75-94.27c-8.25-7.76-29.1-19.58-51.55-31.16-12.06-6.21-24.58-12.37-35.85-17.78h0Z" transform="translate(-3451.51 -1843.51)" style="fill: #c12582"/>
  <path d="M5290.95,2820v3A18.86,18.86,0,0,1,5290.95,2820Z" transform="translate(-3451.51 -1843.51)" style="fill: #c12582"/>
  <path d="M5296.59,2982c-119.42-75.7-302-104.52-309.18-105.65,7.64,1,205.48,26,245.68-6.18,41-32.79,45.08-103.48,45.08-103.48l12.3,49.18.39,0C5290.46,2841.11,5289.94,2919,5296.59,2982Z" transform="translate(-3451.51 -1843.51)" style="fill: #333;opacity: 0.1"/>
  <path d="M5247.5,2599.14h0c-27.58-6.36-58-9-87.27-9.54L5054,2608.71a167.5,167.5,0,0,0-42.17,17.83l-54.31,129.86c1.23-.76,80-49.36,88.11-72.74,8.2-23.57,141.39-37.91,176.23-7.17,28.36,25,90.76-27.34,61.54-59.57Z" transform="translate(-3451.51 -1843.51)" style="fill: #333;opacity: 0.1"/>
  <path d="M5170.26,2624.83a207.36,207.36,0,0,1-20,11c-69.69,33-96.82-11-96.82-11l3.13-87.74.16-4.51.58-16.23,98.14-76.84a325.05,325.05,0,0,1,27.93,46.73C5204.63,2529.77,5222.36,2592.62,5170.26,2624.83Z" transform="translate(-3451.51 -1843.51)" style="fill: #ffa983"/>
  <path d="M5170.26,2624.83a207.36,207.36,0,0,1-20,11l-95-59.68-1.79-42.34,3.29-1.21,126.65-46.33C5204.63,2529.77,5222.36,2592.62,5170.26,2624.83Z" transform="translate(-3451.51 -1843.51)" style="fill: #a37361;opacity: 0.5"/>
  <path d="M5164.16,2524.88c-18.17,27.59-45.07,64-84.85,63-16.59-.44-30.54-20.35-42.26-27.29-66.74-39.55-61.37-165.62-60.9-174.71,5,2.3,21.94,9.22,49.58,12.85,32.82,4.31,80.81,4,142.06-14.27C5167.8,2384.42,5157.25,2454.73,5164.16,2524.88Z" transform="translate(-3451.51 -1843.51)" style="fill: #ffa983"/>
  <path d="M5261.89,2654.45c-37.17,6.91-61.78-21.67-61.78-21.67-21.79-25.79-31.89-66.66-36-107.91-6.91-70.14.85-117.05.85-117.05-61.25,18.24-104.1,20.42-136.93,16.11-27.64-3.63-46.15-5.74-51.19-8-.47,9.09,2.76,101.3,67.23,150.11-11.94,103.75-87.06,190.64-87.06,190.64s12.58-104-2.56-151.13-10.15-244.23,31-304.33S5127.95,2279,5127.95,2279c63.11-32.69,105.2,93,105.2,93Z" transform="translate(-3451.51 -1843.51)" style="fill: #333"/>
  <path d="M3982,2893.93l11-63.62s-7.61,56.11,27.82,69.8,149.17,7.31,207.23-28.32,162.69-74.6,106.58,80.09c-20.42,56.3-56.16,85.08-16.71,96.32s-311.15,12.9-311.15,12.9Z" transform="translate(-3451.51 -1843.51)" style="fill: #333;opacity: 0.1"/>
  <path d="M3703.5,3192.39c43.26,29.54,97.28,38,147.69,50.47,223.24,55.4,455,90.56,685.11,95.61,129.3,2.84,259-5.59,386.44-28.08,121.6-21.46,256.57-50.94,365.32-111.4,37-20.6,94.4-61.11,60.88-108.9a77.15,77.15,0,0,0-26.69-23.1s-196.16-134.46-1245.1-40.52c-97.68,8.75-197.59,18.87-292.27,45.73-32.91,9.34-85.27,22.44-104.16,55.07C3665.26,3154,3678.76,3175.5,3703.5,3192.39Z" transform="translate(-3451.51 -1843.51)" style="fill: #dbdbdb"/>
  <polygon points="1545.64 1354.26 1548.41 1360.7 1682.25 1274.44 1545.64 1354.26" style="fill: #a5a5a5"/>
  <polygon points="1381.72 1225.32 1708.65 1258.48 1545.64 1354.26 1184.64 1305.44 1381.72 1225.32" style="fill: #bcbcbc"/>
  <path d="M5373.82,2741.91s20.26,213.66,0,251.41-163.93,100.38-180.5,115.12c0,0-18.42,10.13-23,20.26s-17.5,16.58-33.15,15.66-30.39-20.26-23-31.31,12-41.44,35.92-44.2,141.82-94.86,146.43-119.72-5.61-133.49-5.61-133.49S5315.8,2749.27,5373.82,2741.91Z" transform="translate(-3451.51 -1843.51)" style="fill: #ffa983"/>
  <path d="M4974.11,2932.25c-4.91,10.92-9.63,22-14.62,32.85-9,19.71-27.2,42.23-44,54.63-11.41,8.4-28,7.51-39.6,15.64s-26.64,15.39-36.15,25.77a97.59,97.59,0,0,0-6.06,7.92c-22.43,30.13-68.56,44.15-100.72,20.9-5.67-4.1,12.28-17.69,15.47-20.53,5.57-5,11.54-11.4,18.18-15,28.78-15.41,50.49-41,75.68-61.74,9.1-7.5,19.07-13.92,28.17-21.37,7.81-6.39,11.73-15.47,16-24.5,10.92-23.26,18.84-48,26.4-72.52,13.47-43.67,25-88,35.41-132.5q.53-2.27,1.05-4.54l-.34-.08c-.32,2.12-.58,4.26-.78,6.42-3.35,36.5-1.58,54,5.59,90.2,6.37,32.15,18.18,62.85,20.23,95.76C4974,2930.47,4974.07,2931.35,4974.11,2932.25Z" transform="translate(-3451.51 -1843.51)" style="fill: #ffa983"/>
  <polygon points="1545.64 1354.26 1452.63 1135.07 1096.23 1105.6 1184.64 1305.44 1545.64 1354.26" style="fill: #efefef"/>
  <polygon points="1452.63 1135.07 1552.31 1350.34 1545.64 1354.26 1452.63 1135.07" style="fill: #dbdbdb"/>
  <polygon points="1548.41 1360.7 1184.64 1306.37 1184.64 1305.44 1545.64 1354.26 1548.41 1360.7" style="fill: #bcbcbc"/>
  <ellipse cx="4759.56" cy="3078.97" rx="20.26" ry="23.02" transform="translate(-4353.34 948.77) rotate(-30)" style="fill: #fff"/>
  <path d="M3865.49,2931.64s46,189.24,89.3,186.86c9.2-.51,18.56-5.16,26.81-8.86,14.52-6.51,28.59-14,42.53-21.69,36.39-20,71.87-41.73,107.1-63.73,38.17-23.83,75.9-48.32,113.52-73l1.49-1c3.59-2.36,7.19-3.7,11-5.66,11.88-6.1,25.16-8.31,37.23-14.09,11.53-5.53,22.66-12.58,31.33-22.09,11.42-12.54,16.92-29.52,19.29-46,1.42-9.88,5.19-25.42,0-34.66-6.16-10.91-21-4.19-29.28,0-17,8.57-34.24,16.88-50.76,26.34-5.6,3.2-11.65,6-16.35,10.54-5.57,5.34-5.18,10.38-12.24,15-8.75,5.69-19,10.36-28.64,14.16-10.71,4.23-21.26,9.09-31.84,13.66q-34.59,14.94-68.46,31.48c-30.19,14.74-60.12,29-89.78,44.77q-4.75,2.53-9.48,5.08L3982,2893.93S3905.46,2934.6,3865.49,2931.64Z" transform="translate(-3451.51 -1843.51)" style="fill: #ea9e83"/>
  <path d="M4119.93,2659.32a764.22,764.22,0,0,1-82.28-28.6q6.51-1.12,13-2.16c63-10.23,119.86-15.43,119.86-15.43s3.17.38,8.74,1.2c7.31,1.08,18.78,2.93,32.66,5.71,5.49,1.11,11.36,2.35,17.5,3.75h0C4250.1,2684.22,4180.9,2676.29,4119.93,2659.32Z" transform="translate(-3451.51 -1843.51)" style="fill: #ea9e83"/>
  <path d="M4218.74,2634.65s-32.67,1.78-69.53,2.44c-40.83.75-86.8.13-99.19-5.81l.61-2.73,20.79-93.14,101.67,2,38.81,82.6Z" transform="translate(-3451.51 -1843.51)" style="fill: #ea9e83"/>
  <path d="M4200,2598.57l-20.76,15.76-30,22.76-29.28,22.22a764.22,764.22,0,0,1-82.28-28.6q6.51-1.12,13-2.16l20.79-93.14,97,1.94Z" transform="translate(-3451.51 -1843.51)" style="fill: #a37361;opacity: 0.30000000000000004"/>
  <path d="M4270.06,2392.24s10.15,171.64-50.42,197.34-138.5-14.78-145.72-28-37.46-118.41-37.46-118.41l20-118.89S4252.05,2317.37,4270.06,2392.24Z" transform="translate(-3451.51 -1843.51)" style="fill: #ea9e83"/>
  <path d="M4056.66,2515.44s-42.62-33.11-35.5-118.44,11-117.72,78.28-127.19,158.15,45.36,187.5,38.37a193.5,193.5,0,0,0,50.16-19.56s-5.21,98.36-72.72,119.73-149.8-30-149.8-30l-4.35,55.09-11.83-3.48s-25.29-88.15-39.87-8.37S4056.66,2515.44,4056.66,2515.44Z" transform="translate(-3451.51 -1843.51)" style="fill: #333"/>
  <path d="M4422.33,2860.58c-4.33,12.56-35.73,37.1-35.73,37.1l-6.17-124.55s11.67,41.38,35.19,53.89c2.09,10,4.12,20.1,6.05,30.11,0,.05,0,.1,0,.14C4421.91,2858.39,4422.12,2859.49,4422.33,2860.58Z" transform="translate(-3451.51 -1843.51)" style="fill: #333;opacity: 0.1"/>
  <path d="M5291.63,2816a23,23,0,0,0-.69,4l0-4Z" transform="translate(-3451.51 -1843.51)" style="fill: #333"/>
  <path d="M4714.42,2665.4c3,164.95-42.22,276.79-42.22,276.79h0c.1-38.9,1.07-441.32,0-455.29l-5.65-108.46s11.3,76.82,35,97.16S4889.12,2418,4889.12,2418,4711.45,2500.45,4714.42,2665.4Z" transform="translate(-3451.51 -1843.51)" style="fill: #333;opacity: 0.05"/>
  <path d="M5001.59,2186.19c-4.7,4.25-41.3,36.62-85.6,53a150.28,150.28,0,0,1-35.78,8.8c-94.69,10.34-117.07-41.45-121.84-58.56l5.47-1.94h0q6.17-2.17,12.41-4.23,5-1.66,10.07-3.23h0c12.85-4,25.83-7.64,38.68-10.64,32.75-7.66,64.66-11.3,91.23-7.25a348.22,348.22,0,0,1,41.5,9.07A448,448,0,0,1,5001.59,2186.19Z" transform="translate(-3451.51 -1843.51)" style="fill: #ea9e83"/>
  <path d="M5001.59,2186.19c-4.7,4.25-41.3,36.62-85.6,53l-65.35-50.13L4825,2169.4l-34.81-26.7-.5-.38.38-.51,26.64-34.74,50.93-66.43,46.15,26,18.09,10.21,25.84,94.32A448,448,0,0,1,5001.59,2186.19Z" transform="translate(-3451.51 -1843.51)" style="fill: #a37361;opacity: 0.5"/>
  <path d="M4725.3,1986.41s37.84,195.19,123.14,181.89c87-13.56,101.68-124.27,101.68-124.27l-4.52-109.59-81.34-49.71-91.51,15.82Z" transform="translate(-3451.51 -1843.51)" style="fill: #ea9e83"/>
  <path d="M4698.19,1981.89s28.24,44.06,157-28.24c22.6-15.82,78-21.47,84.73,9s9.38,84.67,9.38,84.67,47.11-85.8,12.09-171.67c-14.49-35.54-146.87-49.71-216.91,0S4682.37,1971.73,4698.19,1981.89Z" transform="translate(-3451.51 -1843.51)" style="fill: #333"/>
</svg>
