<svg xmlns="http://www.w3.org/2000/svg" viewBox="0 0 3000 1700">
  <title>Artboard 2</title>
  <path d="M1433.39,797.87c-51.45-203.13,61.33-412.07,258.46-483.13C1952.17,220.89,2395.69,114.49,2513,422c126.07,330.47-209.18,581.36-387.64,687.5-108.72,64.66-241.5,75.81-359,28.92C1698.93,1111.5,1623,1065.6,1544.89,989,1484,929.28,1450,863.38,1433.39,797.87Z" style="fill: #22d2fc"/>
  <path d="M795.45,1328c-57.52-41.87-103.46-99.22-149.14-162-78.88-108.37-145.74-231.57-169.45-364.74C449,644.62,495.65,493.47,605,378c205.7-217.21,523.56-191.52,783.71-103C1638,359.81,1918,509.88,1984.43,789,2034,997.17,1867.34,1143.42,1697,1227c-226.52,111.14-492.47,206.21-748.78,164.62C887.72,1381.81,838.36,1359.19,795.45,1328Z" style="fill: #0cf49b"/>
  <path d="M1281,223s85.13,299.05-38,352c-100,43-47,40-47,40l-121,8-42-296,81-105Z" style="fill: #ffa983"/>
  <polygon points="2187 988 1471 988 1763 791 2377 781 2187 988" style="fill: #b1b2b2"/>
  <polygon points="1471 988 1480 1008 2190 1012 2187 988 1471 988" style="fill: #868787"/>
  <polygon points="2190 1012 2377 813 2377 781 2187 988 2190 1012" style="fill: #868787"/>
  <polygon points="1763 791 1843 441 2472 395 2377 781 1763 791" style="fill: #ccc"/>
  <polygon points="1763 800 1589 917 2237 913 2348 791 1763 800" style="fill: #e6e7e8"/>
  <path d="M1721.16,819.23S1808,801,1800,833s-132,114-132,114l-26-30.6,62.16-91.56Z" style="fill: #333;opacity: 0.08"/>
  <path d="M1642,877s32-42,41-47,47.77-8.33,47.77-8.33S1780,829,1777,842c-2.26,9.81-31.31,16.78-45.41,19.6a19.4,19.4,0,0,0-12.14,8L1687,916.4Z" style="fill: #ffa983"/>
  <path d="M1525,938l115.82-64.57S1697,865,1697,906s-141,142-141,142Z" style="fill: #206396"/>
  <path d="M1954,872s-37-77,64-81,208-10,177,30-150,134-217,96S1954,872,1954,872Z" style="fill: #333;opacity: 0.08"/>
  <path d="M1973.2,851.59l36.49-47a27.76,27.76,0,0,1,17.22-10.33l18.37-3.16a5.84,5.84,0,0,1,1.44-.07l62.57,4.9c13.72,1.07,17,19.73,4.44,25.39h0a43.39,43.39,0,0,0-21.52,21.33l-27.59,59.65a5.84,5.84,0,0,1-8.11,2.67L1975,860.29A5.84,5.84,0,0,1,1973.2,851.59Z" style="fill: #ffa983"/>
  <polygon points="1758 924 1687 979 1913 979 1968 924 1758 924" style="fill: #ccc"/>
  <polygon points="2472 395 2472 420 2377 813 2377 781 2472 395" style="fill: #b1b2b2"/>
  <polygon points="1852 452 1784 753 2377 735 2459 408 1852 452" style="fill: #e6e7e8"/>
  <polygon points="1857 462 1852 477 2143 458 2148 440 1857 462" style="fill: #14e07a;opacity: 0.6900000000000001"/>
  <polygon points="1904 494 1898 513 2235 494 2244 470 1904 494" style="fill: #177fdd;opacity: 0.6900000000000001"/>
  <polygon points="1898 538 1892 554 2121 544 2127 526 1898 538" style="fill: #177fdd;opacity: 0.6900000000000001"/>
  <polygon points="1892 585 1888 600 2017 600 2022 578 1892 585" style="fill: #c214ed;opacity: 0.6900000000000001"/>
  <path d="M1763,1250s-192,136-292,36c-21.72-21.72-40.08-47.49-55.53-74.53l.53,1.53-6.14,80.42a97.09,97.09,0,0,1-67.93,85.27c-30.57,9.54-70.45,20.78-115.55,30.53-180.94,39.1-446,54.33-531.38-159.22,0,0-31-537,208-624a564,564,0,0,1,103.92-27.06,551.85,551.85,0,0,1,186.56,2.14h0c98.65,18,169.16,58.57,190.51,79.92,39,39,217,322,269,353s316-180,316-180,68-18,102,31S1763,1250,1763,1250Z" style="fill: #177fdd"/>
  <path d="M834.64,991.49c-8.23,5.07-19.64,1.09-25.93-6.28-7.51-8.81-10.42-22.13-13.7-33a98,98,0,0,1-3.84-31.66c1-26.07,13.84-49.13,32.82-66.57,71.36-65.57,25.8-186.46,22.46-195q-.2-.51-.37-1c-3.17-9.82-47.45-148.81-30.09-199,18-52,60-122,60-133s78-351,430.91-131.28c5.09,3.17,5.33,10.73,3.75,16.52C1301.59,244.43,1265.3,355.06,1187,344c-66.28-9.37-58.86,96.5-33.82,161.65,7.55,19.66-19,34.16-31.29,17.09A70.19,70.19,0,0,1,1116,513c-21-42,58,97,63,160,2.28,28.78-10.5,57.75-27.78,80.13-9.06,11.74-20.79,24.62-34.69,30.6-8.94,3.85-19,3.47-26.14-3.6-4.64,8.17-.37,27.15-.06,36.12.6,17.09.74,34.2-.13,51.28-2.06,40.14-9.14,82.24-30.71,116.88-25.57,41-69.28,59.95-116.64,60.57-23.58.31-47.13-3.2-70-8.57-10.53-2.47-17.24-11.48-21.55-20.83-3.27-7.12-5.52-14.69-9-21.71-.93-1.87-2.39-4-4.47-3.84a6.84,6.84,0,0,0-3,1.4Z" style="fill: #303030"/>
  <path d="M1416,1213l-6.14,80.42a97.09,97.09,0,0,1-67.93,85.27c-30.57,9.54-70.45,20.78-115.55,30.53L1343,1045Z" style="fill: #333;opacity: 0.2"/>
</svg>
