<?xml version="1.0" ?><!DOCTYPE svg  PUBLIC '-//W3C//DTD SVG 1.1//EN'  'http://www.w3.org/Graphics/SVG/1.1/DTD/svg11.dtd'><svg enable-background="new 0 0 32 32" height="32px" id="Layer_1" version="1.1" viewBox="0 0 32 32" width="32px" xml:space="preserve" xmlns="http://www.w3.org/2000/svg" xmlns:xlink="http://www.w3.org/1999/xlink"><path d="M31.4,11.2l-3-3.998c-0.117-0.157-0.256-0.293-0.4-0.423V2c0-1.104-0.896-2-2-2H6  C4.895,0,4,0.896,4,2v4.78C3.856,6.909,3.717,7.044,3.6,7.2l-2.999,3.999C0.213,11.715,0,12.354,0,13v1c0,1.654,1.346,3,3,3h0v13  c0,1.104,0.896,2,2,2h22c1.104,0,2-0.896,2-2V17l0,0c1.654,0,3-1.346,3-3v-1C32,12.354,31.787,11.715,31.4,11.2z M26,2v4H6h0V2H26z   M10.193,15H6.004l4-7h2.189L10.193,15z M13.234,8H15.5v7h-4.266L13.234,8z M16.5,8h2.266l2,7H16.5V8z M19.805,8h2.189l4,7h-4.189  L19.805,8z M2,14v-1c0-0.217,0.07-0.427,0.2-0.6l3-4C5.389,8.148,5.685,8,6,8h2.852l-4,7H3C2.448,15,2,14.553,2,14z M20,30h-7.5V20  H20V30z M27,30h-6V20c0-0.553-0.449-1-1-1h-7.5c-0.552,0-1,0.447-1,1v10H5V17h22V30z M30,14c0,0.553-0.447,1-1,1h-1.854l-4-7H26l0,0  c0.314,0,0.611,0.148,0.799,0.4l3,4C29.93,12.573,30,12.783,30,13V14z" fill="#333332" id="shop_1_"/></svg>